<svg width="269" height="64" viewBox="0 0 269 64" fill="none" xmlns="http://www.w3.org/2000/svg">
<path d="M42.5734 18.7651C40.261 13.7152 45.4692 8.50958 50.5216 10.8207L79.244 23.9591C83.0453 25.698 83.945 30.6931 80.9891 33.6476L65.4122 49.2172C62.4562 52.1717 57.4586 51.2725 55.7188 47.4731L42.5734 18.7651Z" fill="#8476F6" fill-opacity="0.47"/>
<path d="M83.2941 26.4602C90.1928 33.3552 90.1931 44.5343 83.2948 51.4292C76.3966 58.3241 65.2121 58.324 58.3135 51.429C51.4149 44.5339 51.4146 33.3549 58.3128 26.4599C65.211 19.565 76.3955 19.5651 83.2941 26.4602Z" fill="#8476F6"/>
<path d="M45.1709 10.8151C50.2231 8.50405 55.4316 13.7098 53.1195 18.7596L39.9756 47.4674C38.236 51.2668 33.2385 52.1659 30.2824 49.2113L14.7046 33.6415C11.7484 30.6869 12.6479 25.6918 16.4491 23.953L45.1709 10.8151Z" fill="#FC6363" fill-opacity="0.47"/>
<path d="M37.4731 51.5157C30.5748 58.4106 19.3903 58.4105 12.4917 51.5154C5.59308 44.6204 5.59277 33.4414 12.491 26.5464C19.3892 19.6515 30.5737 19.6516 37.4724 26.5466C44.371 33.4417 44.3713 44.6207 37.4731 51.5157Z" fill="#FC6363"/>
<path d="M210.33 48.2299C208.211 48.2299 206.272 47.8806 204.514 47.1822C202.755 46.4596 201.238 45.4601 199.962 44.1836C198.709 42.883 197.734 41.3537 197.035 39.5955C196.337 37.8132 195.988 35.8623 195.988 33.7429C195.988 31.6234 196.337 29.6846 197.035 27.9264C197.734 26.1682 198.709 24.6509 199.962 23.3744C201.238 22.0738 202.755 21.0743 204.514 20.3758C206.272 19.6533 208.211 19.292 210.33 19.292C212.45 19.292 214.376 19.6533 216.111 20.3758C217.869 21.0743 219.386 22.0738 220.663 23.3744C221.939 24.6509 222.927 26.1682 223.625 27.9264C224.323 29.6846 224.673 31.6234 224.673 33.7429C224.673 35.8623 224.323 37.8132 223.625 39.5955C222.927 41.3537 221.939 42.883 220.663 44.1836C219.386 45.4601 217.869 46.4596 216.111 47.1822C214.376 47.8806 212.45 48.2299 210.33 48.2299ZM210.33 44.8339C212.426 44.8339 214.28 44.3522 215.894 43.3888C217.507 42.4014 218.772 41.0767 219.687 39.4148C220.602 37.7289 221.06 35.8382 221.06 33.7429C221.06 31.6475 220.602 29.7689 219.687 28.107C218.772 26.4211 217.507 25.0964 215.894 24.133C214.28 23.1696 212.426 22.6879 210.33 22.6879C208.235 22.6879 206.38 23.1696 204.767 24.133C203.153 25.0964 201.888 26.4211 200.973 28.107C200.058 29.7689 199.6 31.6475 199.6 33.7429C199.6 35.8382 200.058 37.7289 200.973 39.4148C201.888 41.0767 203.153 42.4014 204.767 43.3888C206.38 44.3522 208.235 44.8339 210.33 44.8339Z" fill="#FC6363"/>
<path d="M240.312 48.0492C238.65 48.0492 237.157 47.7 235.832 47.0015C234.532 46.279 233.496 45.2313 232.725 43.8585C231.979 42.4856 231.605 40.7997 231.605 38.8007V29.9134C231.605 29.3835 231.774 28.95 232.111 28.6128C232.472 28.2515 232.918 28.0709 233.448 28.0709C233.978 28.0709 234.411 28.2515 234.748 28.6128C235.11 28.95 235.29 29.3835 235.29 29.9134V38.8007C235.29 40.8479 235.832 42.3532 236.916 43.3166C238.024 44.2559 239.397 44.7255 241.035 44.7255C242.07 44.7255 242.985 44.5208 243.78 44.1114C244.599 43.7019 245.249 43.148 245.731 42.4495C246.213 41.7511 246.454 40.9683 246.454 40.1013V29.9134C246.454 29.3594 246.622 28.9139 246.959 28.5767C247.321 28.2395 247.766 28.0709 248.296 28.0709C248.85 28.0709 249.296 28.2395 249.633 28.5767C249.97 28.9139 250.139 29.3594 250.139 29.9134V46.0261C250.139 46.556 249.97 47.0015 249.633 47.3628C249.296 47.7 248.85 47.8686 248.296 47.8686C247.766 47.8686 247.321 47.7 246.959 47.3628C246.622 47.0015 246.454 46.556 246.454 46.0261V45.6287C245.707 46.3753 244.804 46.9654 243.744 47.3989C242.684 47.8325 241.54 48.0492 240.312 48.0492Z" fill="#FC6363"/>
<path d="M265.624 47.8686C264.42 47.8686 263.336 47.5675 262.373 46.9654C261.409 46.3392 260.651 45.4962 260.097 44.4365C259.543 43.3768 259.266 42.1846 259.266 40.8599V31.9365H257.604C257.098 31.9365 256.689 31.792 256.376 31.503C256.063 31.214 255.906 30.8527 255.906 30.4192C255.906 29.9375 256.063 29.5521 256.376 29.2631C256.689 28.9741 257.098 28.8296 257.604 28.8296H259.266V23.6273C259.266 23.0974 259.434 22.6639 259.772 22.3267C260.109 21.9895 260.542 21.8209 261.072 21.8209C261.602 21.8209 262.036 21.9895 262.373 22.3267C262.71 22.6639 262.879 23.0974 262.879 23.6273V28.8296H265.949C266.455 28.8296 266.865 28.9741 267.178 29.2631C267.491 29.5521 267.647 29.9375 267.647 30.4192C267.647 30.8527 267.491 31.214 267.178 31.503C266.865 31.792 266.455 31.9365 265.949 31.9365H262.879V40.8599C262.879 41.8233 263.144 42.6302 263.673 43.2804C264.203 43.9307 264.854 44.2559 265.624 44.2559H266.853C267.286 44.2559 267.647 44.4245 267.936 44.7617C268.249 45.0988 268.406 45.5324 268.406 46.0622C268.406 46.5921 268.201 47.0256 267.792 47.3628C267.407 47.7 266.901 47.8686 266.275 47.8686H265.624Z" fill="#FC6363"/>
<path d="M114.68 48.1696C113.138 48.1696 111.669 47.9287 110.272 47.447C108.875 46.9653 107.659 46.291 106.623 45.4239C105.588 44.5569 104.829 43.5573 104.347 42.4254C104.106 41.9196 104.106 41.4499 104.347 41.0164C104.612 40.5829 105.046 40.3059 105.648 40.1855C106.081 40.0891 106.503 40.1614 106.912 40.4022C107.346 40.619 107.671 40.9562 107.888 41.4138C108.177 42.0159 108.646 42.5699 109.297 43.0756C109.971 43.5814 110.778 43.9909 111.717 44.304C112.657 44.6171 113.644 44.7736 114.68 44.7736C115.836 44.7736 116.896 44.593 117.859 44.2317C118.846 43.8704 119.641 43.3526 120.243 42.6782C120.845 41.9798 121.146 41.1248 121.146 40.1132C121.146 38.8367 120.641 37.6927 119.629 36.6811C118.642 35.6696 117.004 35.0434 114.716 34.8025C111.729 34.5135 109.381 33.6344 107.671 32.1652C105.961 30.6961 105.106 28.8777 105.106 26.71C105.106 25.1204 105.552 23.7717 106.443 22.6638C107.334 21.5559 108.538 20.7129 110.055 20.1349C111.597 19.5568 113.307 19.2678 115.185 19.2678C117.377 19.2678 119.172 19.7134 120.568 20.6045C121.965 21.4957 123.121 22.6758 124.037 24.145C124.374 24.6749 124.506 25.1806 124.434 25.6623C124.386 26.1199 124.157 26.4812 123.748 26.7462C123.29 27.0352 122.796 27.0954 122.266 26.9268C121.737 26.7582 121.339 26.4451 121.074 25.9875C120.472 24.9518 119.689 24.145 118.726 23.567C117.787 22.9889 116.57 22.6879 115.077 22.6638C113.295 22.6397 111.802 22.9769 110.597 23.6753C109.393 24.3497 108.791 25.3974 108.791 26.8184C108.791 27.5409 108.972 28.2394 109.333 28.9138C109.718 29.5641 110.405 30.1301 111.392 30.6118C112.404 31.0935 113.849 31.4306 115.727 31.6233C118.593 31.9123 120.821 32.7914 122.411 34.2606C124.025 35.7057 124.831 37.6204 124.831 40.0048C124.831 41.3777 124.542 42.5699 123.964 43.5814C123.41 44.593 122.652 45.448 121.688 46.1465C120.749 46.8208 119.665 47.3266 118.437 47.6638C117.233 48.001 115.98 48.1696 114.68 48.1696Z" fill="#8476F6"/>
<path d="M140.998 47.9528C139.047 47.9528 137.325 47.5313 135.831 46.6884C134.338 45.8213 133.158 44.6412 132.291 43.1479C131.448 41.6306 131.026 39.8964 131.026 37.9456C131.026 35.9706 131.448 34.2365 132.291 32.7433C133.158 31.2259 134.338 30.0458 135.831 29.2028C137.325 28.3357 139.047 27.9022 140.998 27.9022C142.924 27.9022 144.634 28.3357 146.128 29.2028C147.621 30.0458 148.789 31.2259 149.632 32.7433C150.499 34.2365 150.932 35.9706 150.932 37.9456C150.932 39.8964 150.511 41.6306 149.668 43.1479C148.825 44.6412 147.657 45.8213 146.164 46.6884C144.67 47.5313 142.948 47.9528 140.998 47.9528ZM140.998 44.7014C142.25 44.7014 143.358 44.4123 144.321 43.8343C145.285 43.2563 146.031 42.4615 146.561 41.4499C147.115 40.4384 147.392 39.2702 147.392 37.9456C147.392 36.6209 147.115 35.4528 146.561 34.4412C146.031 33.4056 145.285 32.5988 144.321 32.0207C143.358 31.4427 142.25 31.1537 140.998 31.1537C139.745 31.1537 138.637 31.4427 137.674 32.0207C136.71 32.5988 135.952 33.4056 135.398 34.4412C134.844 35.4528 134.567 36.6209 134.567 37.9456C134.567 39.2702 134.844 40.4384 135.398 41.4499C135.952 42.4615 136.71 43.2563 137.674 43.8343C138.637 44.4123 139.745 44.7014 140.998 44.7014Z" fill="#8476F6"/>
<path d="M162.92 47.8083C161.86 47.8083 160.921 47.5193 160.102 46.9413C159.283 46.3632 158.645 45.5805 158.187 44.593C157.729 43.5814 157.501 42.4254 157.501 41.1248V21.3993C157.501 20.8695 157.669 20.4359 158.006 20.0987C158.344 19.7616 158.777 19.593 159.307 19.593C159.837 19.593 160.27 19.7616 160.608 20.0987C160.945 20.4359 161.113 20.8695 161.113 21.3993V41.1248C161.113 42.0159 161.282 42.7505 161.619 43.3285C161.956 43.9066 162.39 44.1956 162.92 44.1956H163.823C164.305 44.1956 164.69 44.3642 164.979 44.7014C165.292 45.0386 165.449 45.4721 165.449 46.0019C165.449 46.5318 165.22 46.9653 164.762 47.3025C164.305 47.6397 163.714 47.8083 162.992 47.8083H162.92Z" fill="#8476F6"/>
<path d="M178.726 47.9528C176.848 47.9528 175.15 47.5193 173.633 46.6522C172.139 45.7611 170.947 44.5569 170.056 43.0395C169.189 41.5222 168.755 39.8122 168.755 37.9095C168.755 36.0068 169.153 34.3088 169.948 32.8155C170.766 31.2982 171.874 30.106 173.271 29.2389C174.668 28.3478 176.246 27.9022 178.004 27.9022C179.425 27.9022 180.738 28.2033 181.942 28.8054C183.146 29.3834 184.158 30.1782 184.976 31.1898V21.4355C184.976 20.8815 185.145 20.4359 185.482 20.0987C185.843 19.7616 186.289 19.593 186.819 19.593C187.373 19.593 187.818 19.7616 188.156 20.0987C188.493 20.4359 188.661 20.8815 188.661 21.4355V37.9095C188.661 39.8122 188.216 41.5222 187.325 43.0395C186.458 44.5569 185.278 45.7611 183.784 46.6522C182.291 47.5193 180.605 47.9528 178.726 47.9528ZM178.726 44.7014C179.955 44.7014 181.051 44.4123 182.014 43.8343C182.977 43.2322 183.736 42.4133 184.29 41.3777C184.844 40.342 185.121 39.1859 185.121 37.9095C185.121 36.6089 184.844 35.4528 184.29 34.4412C183.736 33.4297 182.977 32.6349 182.014 32.0568C181.051 31.4547 179.955 31.1537 178.726 31.1537C177.522 31.1537 176.426 31.4547 175.439 32.0568C174.475 32.6349 173.705 33.4297 173.127 34.4412C172.573 35.4528 172.296 36.6089 172.296 37.9095C172.296 39.1859 172.573 40.342 173.127 41.3777C173.705 42.4133 174.475 43.2322 175.439 43.8343C176.426 44.4123 177.522 44.7014 178.726 44.7014Z" fill="#8476F6"/>
</svg>
