<svg width="48" height="48" viewBox="0 0 48 48" fill="none" xmlns="http://www.w3.org/2000/svg">
<g clip-path="url(#clip0)">
<path d="M30.366 23.7331C30.366 25.479 29.6724 27.1534 28.4379 28.388C27.2033 29.6225 25.5289 30.3161 23.783 30.3161C22.0371 30.3161 20.3627 29.6225 19.1281 28.388C17.8936 27.1534 17.2 25.479 17.2 23.7331C17.1986 23.1043 17.2892 22.4786 17.469 21.8761H14.349V32.1601C14.36 32.4217 14.4689 32.6697 14.6541 32.8549C14.8393 33.0401 15.0873 33.149 15.349 33.1601H32.278C32.5272 33.1436 32.7599 33.0292 32.9251 32.8419C33.0904 32.6545 33.1748 32.4094 33.16 32.1601V21.8721H30.099C30.2779 22.4762 30.3678 23.1031 30.366 23.7331Z" fill="#FC6363"/>
<path d="M23.783 28.4169C26.3798 28.4169 28.485 26.3118 28.485 23.7149C28.485 21.1181 26.3798 19.0129 23.783 19.0129C21.1862 19.0129 19.081 21.1181 19.081 23.7149C19.081 26.3118 21.1862 28.4169 23.783 28.4169Z" fill="#FC6363"/>
<path d="M32.218 14.3491H29.396C29.1464 14.3491 28.9071 14.4483 28.7306 14.6247C28.5541 14.8012 28.455 15.0406 28.455 15.2901V18.1121C28.455 18.3617 28.5541 18.601 28.7306 18.7775C28.9071 18.954 29.1464 19.0531 29.396 19.0531H32.218C32.4676 19.0531 32.7069 18.954 32.8834 18.7775C33.0599 18.601 33.159 18.3617 33.159 18.1121V15.2901C33.1587 15.0406 33.0595 14.8014 32.8831 14.625C32.7067 14.4486 32.4675 14.3494 32.218 14.3491Z" fill="#FC6363"/>
<path d="M23.754 0C19.0559 0 14.4633 1.39315 10.557 4.00327C6.65067 6.61339 3.60607 10.3233 1.80818 14.6637C0.0102971 19.0042 -0.460118 23.7804 0.456435 28.3882C1.37299 32.996 3.63536 37.2286 6.95741 40.5506C10.2795 43.8727 14.512 46.135 19.1198 47.0516C23.7277 47.9681 28.5038 47.4977 32.8443 45.6998C37.1848 43.902 40.8946 40.8573 43.5047 36.951C46.1149 33.0447 47.508 28.4521 47.508 23.754C47.508 17.454 45.0054 11.4121 40.5506 6.95739C36.0959 2.50265 30.054 0 23.754 0ZM35.039 32.248C35.0388 32.9884 34.7445 33.6984 34.221 34.222C33.6974 34.7455 32.9874 35.0397 32.247 35.04H15.259C14.5186 35.0397 13.8086 34.7455 13.285 34.222C12.7615 33.6984 12.4673 32.9884 12.467 32.248V15.26C12.467 14.5195 12.7612 13.8094 13.2848 13.2858C13.8084 12.7622 14.5185 12.468 15.259 12.468H32.247C32.6137 12.4679 32.9768 12.54 33.3156 12.6803C33.6544 12.8205 33.9623 13.0262 34.2215 13.2855C34.4808 13.5448 34.6865 13.8526 34.8268 14.1914C34.967 14.5302 35.0391 14.8933 35.039 15.26V32.248Z" fill="#FC6363"/>
</g>
<defs>
<clipPath id="clip0">
<rect width="47.508" height="47.508" fill="white"/>
</clipPath>
</defs>
</svg>
