<svg width="546" height="97" viewBox="0 0 546 97" fill="none" xmlns="http://www.w3.org/2000/svg">
<path d="M352.633 96.2001C345.593 96.2001 339.153 95.0401 333.313 92.7201C327.473 90.3201 322.433 87.0001 318.193 82.7601C314.033 78.4401 310.793 73.3601 308.473 67.5201C306.153 61.6001 304.993 55.1201 304.993 48.0801C304.993 41.0401 306.153 34.6001 308.473 28.7601C310.793 22.9201 314.033 17.8801 318.193 13.6401C322.433 9.32007 327.473 6.00007 333.313 3.68007C339.153 1.28008 345.593 0.0800781 352.633 0.0800781C359.673 0.0800781 366.073 1.28008 371.833 3.68007C377.673 6.00007 382.713 9.32007 386.953 13.6401C391.193 17.8801 394.473 22.9201 396.793 28.7601C399.113 34.6001 400.273 41.0401 400.273 48.0801C400.273 55.1201 399.113 61.6001 396.793 67.5201C394.473 73.3601 391.193 78.4401 386.953 82.7601C382.713 87.0001 377.673 90.3201 371.833 92.7201C366.073 95.0401 359.673 96.2001 352.633 96.2001ZM352.633 84.9201C359.593 84.9201 365.753 83.3201 371.113 80.1201C376.473 76.8401 380.673 72.4401 383.713 66.9201C386.753 61.3201 388.273 55.0401 388.273 48.0801C388.273 41.1201 386.753 34.8801 383.713 29.3601C380.673 23.7601 376.473 19.3601 371.113 16.1601C365.753 12.9601 359.593 11.3601 352.633 11.3601C345.673 11.3601 339.513 12.9601 334.153 16.1601C328.793 19.3601 324.593 23.7601 321.553 29.3601C318.513 34.8801 316.993 41.1201 316.993 48.0801C316.993 55.0401 318.513 61.3201 321.553 66.9201C324.593 72.4401 328.793 76.8401 334.153 80.1201C339.513 83.3201 345.673 84.9201 352.633 84.9201Z" fill="#FC6363"/>
<path d="M452.22 95.6001C446.7 95.6001 441.74 94.4401 437.34 92.1201C433.02 89.7201 429.581 86.2401 427.021 81.6801C424.541 77.1201 423.301 71.5201 423.301 64.8801V35.3601C423.301 33.6001 423.86 32.1601 424.98 31.0401C426.18 29.8401 427.66 29.2401 429.421 29.2401C431.181 29.2401 432.621 29.8401 433.741 31.0401C434.941 32.1601 435.54 33.6001 435.54 35.3601V64.8801C435.54 71.6801 437.34 76.6801 440.94 79.8801C444.62 83.0001 449.18 84.5601 454.62 84.5601C458.06 84.5601 461.101 83.8801 463.741 82.5201C466.461 81.1601 468.62 79.3201 470.22 77.0001C471.82 74.6801 472.62 72.0801 472.62 69.2001V35.3601C472.62 33.5201 473.181 32.0401 474.301 30.9201C475.501 29.8001 476.981 29.2401 478.741 29.2401C480.581 29.2401 482.061 29.8001 483.181 30.9201C484.301 32.0401 484.861 33.5201 484.861 35.3601V88.8801C484.861 90.6401 484.301 92.1201 483.181 93.3201C482.061 94.4401 480.581 95.0001 478.741 95.0001C476.981 95.0001 475.501 94.4401 474.301 93.3201C473.181 92.1201 472.62 90.6401 472.62 88.8801V87.5601C470.14 90.0401 467.14 92.0001 463.62 93.4401C460.1 94.8801 456.3 95.6001 452.22 95.6001Z" fill="#FC6363"/>
<path d="M536.297 95.0001C532.297 95.0001 528.697 94.0001 525.497 92.0001C522.297 89.9201 519.777 87.1201 517.937 83.6001C516.097 80.0801 515.177 76.1201 515.177 71.7201V42.0801H509.657C507.977 42.0801 506.617 41.6001 505.577 40.6401C504.537 39.6801 504.017 38.4801 504.017 37.0401C504.017 35.4401 504.537 34.1601 505.577 33.2001C506.617 32.2401 507.977 31.7601 509.657 31.7601H515.177V14.4801C515.177 12.7201 515.737 11.2801 516.857 10.1601C517.977 9.04008 519.417 8.48008 521.177 8.48008C522.937 8.48008 524.377 9.04008 525.497 10.1601C526.617 11.2801 527.177 12.7201 527.177 14.4801V31.7601H537.377C539.057 31.7601 540.417 32.2401 541.457 33.2001C542.497 34.1601 543.017 35.4401 543.017 37.0401C543.017 38.4801 542.497 39.6801 541.457 40.6401C540.417 41.6001 539.057 42.0801 537.377 42.0801H527.177V71.7201C527.177 74.9201 528.057 77.6001 529.817 79.7601C531.577 81.9201 533.737 83.0001 536.297 83.0001H540.377C541.817 83.0001 543.017 83.5601 543.977 84.6801C545.017 85.8001 545.537 87.2401 545.537 89.0001C545.537 90.7601 544.857 92.2001 543.497 93.3201C542.217 94.4401 540.537 95.0001 538.457 95.0001H536.297Z" fill="#FC6363"/>
<path d="M34.92 96C29.8 96 24.92 95.2 20.28 93.6C15.64 92 11.6 89.76 8.16 86.88C4.72 84 2.2 80.68 0.6 76.92C-0.2 75.24 -0.2 73.68 0.6 72.24C1.48 70.8 2.92 69.88 4.92 69.48C6.36 69.16 7.76 69.4 9.12 70.2C10.56 70.92 11.64 72.04 12.36 73.56C13.32 75.56 14.88 77.4 17.04 79.08C19.28 80.76 21.96 82.12 25.08 83.16C28.2 84.2 31.48 84.72 34.92 84.72C38.76 84.72 42.28 84.12 45.48 82.92C48.76 81.72 51.4 80 53.4 77.76C55.4 75.44 56.4 72.6 56.4 69.24C56.4 65 54.72 61.2 51.36 57.84C48.08 54.48 42.64 52.4 35.04 51.6C25.12 50.64 17.32 47.72 11.64 42.84C5.96 37.96 3.12 31.92 3.12 24.72C3.12 19.44 4.6 14.96 7.56 11.28C10.52 7.6 14.52 4.8 19.56 2.88C24.68 0.96 30.36 0 36.6 0C43.88 0 49.84 1.48 54.48 4.44C59.12 7.4 62.96 11.32 66 16.2C67.12 17.96 67.56 19.64 67.32 21.24C67.16 22.76 66.4 23.96 65.04 24.84C63.52 25.8 61.88 26 60.12 25.44C58.36 24.88 57.04 23.84 56.16 22.32C54.16 18.88 51.56 16.2 48.36 14.28C45.24 12.36 41.2 11.36 36.24 11.28C30.32 11.2 25.36 12.32 21.36 14.64C17.36 16.88 15.36 20.36 15.36 25.08C15.36 27.48 15.96 29.8 17.16 32.04C18.44 34.2 20.72 36.08 24 37.68C27.36 39.28 32.16 40.4 38.4 41.04C47.92 42 55.32 44.92 60.6 49.8C65.96 54.6 68.64 60.96 68.64 68.88C68.64 73.44 67.68 77.4 65.76 80.76C63.92 84.12 61.4 86.96 58.2 89.28C55.08 91.52 51.48 93.2 47.4 94.32C43.4 95.44 39.24 96 34.92 96Z" fill="#8476F6"/>
<path d="M122.337 95.28C115.857 95.28 110.137 93.88 105.177 91.08C100.217 88.2 96.2972 84.28 93.4172 79.32C90.6172 74.28 89.2172 68.52 89.2172 62.04C89.2172 55.48 90.6172 49.72 93.4172 44.76C96.2972 39.72 100.217 35.8 105.177 33C110.137 30.12 115.857 28.68 122.337 28.68C128.737 28.68 134.417 30.12 139.377 33C144.337 35.8 148.217 39.72 151.017 44.76C153.897 49.72 155.337 55.48 155.337 62.04C155.337 68.52 153.937 74.28 151.137 79.32C148.337 84.28 144.457 88.2 139.497 91.08C134.537 93.88 128.817 95.28 122.337 95.28ZM122.337 84.48C126.497 84.48 130.177 83.52 133.377 81.6C136.577 79.68 139.057 77.04 140.817 73.68C142.657 70.32 143.577 66.44 143.577 62.04C143.577 57.64 142.657 53.76 140.817 50.4C139.057 46.96 136.577 44.28 133.377 42.36C130.177 40.44 126.497 39.48 122.337 39.48C118.177 39.48 114.497 40.44 111.297 42.36C108.097 44.28 105.577 46.96 103.737 50.4C101.897 53.76 100.977 57.64 100.977 62.04C100.977 66.44 101.897 70.32 103.737 73.68C105.577 77.04 108.097 79.68 111.297 81.6C114.497 83.52 118.177 84.48 122.337 84.48Z" fill="#8476F6"/>
<path d="M195.154 94.8C191.634 94.8 188.514 93.84 185.794 91.92C183.074 90 180.954 87.4 179.434 84.12C177.914 80.76 177.154 76.92 177.154 72.6V7.08C177.154 5.32 177.714 3.88 178.834 2.76C179.954 1.64 181.394 1.08 183.154 1.08C184.914 1.08 186.354 1.64 187.474 2.76C188.594 3.88 189.154 5.32 189.154 7.08V72.6C189.154 75.56 189.714 78 190.834 79.92C191.954 81.84 193.394 82.8 195.154 82.8H198.154C199.754 82.8 201.034 83.36 201.994 84.48C203.034 85.6 203.554 87.04 203.554 88.8C203.554 90.56 202.794 92 201.274 93.12C199.754 94.24 197.794 94.8 195.394 94.8H195.154Z" fill="#8476F6"/>
<path d="M247.658 95.28C241.417 95.28 235.777 93.84 230.738 90.96C225.777 88 221.818 84 218.857 78.96C215.977 73.92 214.538 68.24 214.538 61.92C214.538 55.6 215.857 49.96 218.497 45C221.217 39.96 224.898 36 229.538 33.12C234.178 30.16 239.418 28.68 245.258 28.68C249.978 28.68 254.337 29.68 258.337 31.68C262.337 33.6 265.698 36.24 268.418 39.6V7.2C268.418 5.36 268.978 3.88 270.098 2.76C271.298 1.64 272.777 1.08 274.538 1.08C276.378 1.08 277.858 1.64 278.978 2.76C280.098 3.88 280.658 5.36 280.658 7.2V61.92C280.658 68.24 279.177 73.92 276.217 78.96C273.337 84 269.418 88 264.458 90.96C259.498 93.84 253.898 95.28 247.658 95.28ZM247.658 84.48C251.738 84.48 255.378 83.52 258.578 81.6C261.778 79.6 264.298 76.88 266.138 73.44C267.978 70 268.898 66.16 268.898 61.92C268.898 57.6 267.978 53.76 266.138 50.4C264.298 47.04 261.778 44.4 258.578 42.48C255.378 40.48 251.738 39.48 247.658 39.48C243.658 39.48 240.018 40.48 236.738 42.48C233.538 44.4 230.978 47.04 229.058 50.4C227.218 53.76 226.298 57.6 226.298 61.92C226.298 66.16 227.218 70 229.058 73.44C230.978 76.88 233.538 79.6 236.738 81.6C240.018 83.52 243.658 84.48 247.658 84.48Z" fill="#8476F6"/>
</svg>
