<svg width="48" height="48" viewBox="0 0 48 48" fill="none" xmlns="http://www.w3.org/2000/svg">
<g clip-path="url(#clip0)">
<path d="M23.754 0C19.0559 0 14.4633 1.39315 10.557 4.00327C6.65067 6.61339 3.60607 10.3233 1.80819 14.6637C0.0103047 19.0042 -0.46011 23.7803 0.456443 28.3882C1.373 32.996 3.63533 37.2286 6.95739 40.5506C10.2794 43.8727 14.512 46.135 19.1199 47.0516C23.7277 47.9681 28.5038 47.4977 32.8443 45.6998C37.1848 43.902 40.8946 40.8573 43.5048 36.951C46.1149 33.0447 47.508 28.4521 47.508 23.754C47.508 17.454 45.0054 11.4121 40.5507 6.95739C36.0959 2.50265 30.054 0 23.754 0ZM37.005 31.784C36.305 31.83 35.599 31.799 34.491 31.799C32.357 32.307 30.556 31.199 29.134 29.199C28.698 28.583 28.134 27.999 27.266 28.244C26.9323 28.373 26.6501 28.608 26.4629 28.913C26.2757 29.218 26.1939 29.576 26.23 29.932C26.168 31.189 25.53 31.61 24.367 31.672C22.8248 31.8209 21.2691 31.6144 19.8192 31.0683C18.3693 30.5223 17.0638 29.6512 16.003 28.522C12.857 25.207 10.933 21.153 9.23 16.982C8.963 16.315 9.282 16.135 9.872 16.135C11.037 16.146 12.207 16.156 13.382 16.135C14.168 16.115 14.542 16.612 14.854 17.217C15.7772 19.1107 16.8825 20.9102 18.154 22.59C18.534 23.062 18.909 23.637 19.622 23.457C20.35 23.277 20.484 22.564 20.51 21.995C20.591 20.189 21.248 18.234 19.41 16.813C18.984 16.479 19.287 16.223 19.625 16.105C21.4443 15.4723 23.4158 15.4237 25.264 15.966C26.008 16.177 26.164 16.874 26.151 17.557C26.125 18.68 26.074 19.799 25.988 20.923C25.9371 21.4346 25.9804 21.9511 26.116 22.447C26.454 23.525 26.983 23.699 27.86 22.97C29.0745 21.8008 30.0764 20.4294 30.821 18.917C31.1768 18.3124 31.4889 17.6831 31.755 17.034C31.8438 16.7672 32.0211 16.5389 32.2576 16.3868C32.4941 16.2347 32.7754 16.1681 33.055 16.198C34.455 16.218 35.861 16.239 37.262 16.198C38.114 16.183 38.371 16.47 38.052 17.286C37.5423 18.7952 36.7694 20.2023 35.769 21.442C35.435 21.827 35.096 22.212 34.789 22.627C33.352 24.603 33.43 25.403 35.246 27.061C36.2781 27.8669 37.1964 28.8088 37.976 29.861C38.736 31.065 38.405 31.702 37.005 31.784Z" fill="#8476F6"/>
</g>
<defs>
<clipPath id="clip0">
<rect width="47.508" height="47.508" fill="white"/>
</clipPath>
</defs>
</svg>
