<svg width="319" height="281" viewBox="0 0 319 281" fill="none" xmlns="http://www.w3.org/2000/svg">
<path d="M141.412 62.3302C133.731 45.5566 151.03 28.2655 167.812 35.9421L263.217 79.5827C275.843 85.3585 278.832 101.95 269.013 111.764L217.273 163.48C207.455 173.294 190.855 170.307 185.076 157.687L141.412 62.3302Z" fill="#8476F6" fill-opacity="0.47"/>
<path d="M276.67 87.8905C299.584 110.793 299.585 147.925 276.672 170.828C253.759 193.73 216.608 193.729 193.694 170.827C170.779 147.924 170.778 110.792 193.691 87.8898C216.605 64.9875 253.755 64.9879 276.67 87.8905Z" fill="#8476F6"/>
<path d="M150.039 35.9233C166.821 28.247 184.121 45.5385 176.441 62.312L132.782 157.668C127.004 170.288 110.404 173.274 100.585 163.46L48.8422 111.744C39.0231 101.93 42.0108 85.3378 54.637 79.5623L150.039 35.9233Z" fill="#FC6363" fill-opacity="0.47"/>
<path d="M124.471 171.114C101.558 194.016 64.407 194.016 41.4926 171.113C18.5782 148.211 18.5772 111.078 41.4903 88.1762C64.4034 65.2739 101.554 65.2743 124.468 88.1769C147.383 111.08 147.384 148.212 124.471 171.114Z" fill="#FC6363"/>
<path d="M205.925 281C201.799 281 198.024 280.324 194.6 278.973C191.177 277.574 188.223 275.64 185.737 273.17C183.299 270.653 181.4 267.693 180.04 264.291C178.68 260.842 178 257.067 178 252.965C178 248.864 178.68 245.112 180.04 241.709C181.4 238.307 183.299 235.37 185.737 232.9C188.223 230.383 191.177 228.449 194.6 227.097C198.024 225.699 201.799 225 205.925 225C210.052 225 213.803 225.699 217.18 227.097C220.603 228.449 223.557 230.383 226.042 232.9C228.528 235.37 230.45 238.307 231.81 241.709C233.17 245.112 233.85 248.864 233.85 252.965C233.85 257.067 233.17 260.842 231.81 264.291C230.45 267.693 228.528 270.653 226.042 273.17C223.557 275.64 220.603 277.574 217.18 278.973C213.803 280.324 210.052 281 205.925 281ZM205.925 274.428C210.005 274.428 213.616 273.496 216.758 271.632C219.899 269.721 222.361 267.157 224.143 263.941C225.925 260.679 226.816 257.02 226.816 252.965C226.816 248.91 225.925 245.275 224.143 242.059C222.361 238.796 219.899 236.233 216.758 234.368C213.616 232.504 210.005 231.572 205.925 231.572C201.845 231.572 198.235 232.504 195.093 234.368C191.951 236.233 189.489 238.796 187.707 242.059C185.925 245.275 185.034 248.91 185.034 252.965C185.034 257.02 185.925 260.679 187.707 263.941C189.489 267.157 191.951 269.721 195.093 271.632C198.235 273.496 201.845 274.428 205.925 274.428Z" fill="#FC6363"/>
<path d="M264.3 280.65C261.065 280.65 258.157 279.975 255.578 278.623C253.046 277.225 251.03 275.197 249.529 272.541C248.075 269.884 247.348 266.621 247.348 262.753V245.554C247.348 244.529 247.677 243.69 248.333 243.037C249.037 242.338 249.904 241.989 250.936 241.989C251.967 241.989 252.812 242.338 253.468 243.037C254.171 243.69 254.523 244.529 254.523 245.554V262.753C254.523 266.715 255.578 269.628 257.688 271.492C259.846 273.31 262.519 274.218 265.707 274.218C267.724 274.218 269.506 273.822 271.053 273.03C272.648 272.238 273.914 271.166 274.852 269.814C275.789 268.462 276.258 266.948 276.258 265.27V245.554C276.258 244.482 276.587 243.62 277.243 242.968C277.947 242.315 278.814 241.989 279.846 241.989C280.924 241.989 281.792 242.315 282.448 242.968C283.105 243.62 283.433 244.482 283.433 245.554V276.735C283.433 277.761 283.105 278.623 282.448 279.322C281.792 279.975 280.924 280.301 279.846 280.301C278.814 280.301 277.947 279.975 277.243 279.322C276.587 278.623 276.258 277.761 276.258 276.735V275.966C274.805 277.411 273.046 278.553 270.983 279.392C268.92 280.231 266.692 280.65 264.3 280.65Z" fill="#FC6363"/>
<path d="M313.584 280.301C311.239 280.301 309.129 279.718 307.253 278.553C305.377 277.341 303.9 275.71 302.822 273.659C301.743 271.608 301.204 269.301 301.204 266.738V249.469H297.968C296.983 249.469 296.186 249.19 295.577 248.63C294.967 248.071 294.662 247.372 294.662 246.533C294.662 245.601 294.967 244.855 295.577 244.296C296.186 243.737 296.983 243.457 297.968 243.457H301.204V233.39C301.204 232.364 301.532 231.525 302.189 230.873C302.845 230.22 303.689 229.894 304.721 229.894C305.753 229.894 306.597 230.22 307.253 230.873C307.91 231.525 308.238 232.364 308.238 233.39V243.457H314.217C315.202 243.457 315.999 243.737 316.608 244.296C317.218 244.855 317.523 245.601 317.523 246.533C317.523 247.372 317.218 248.071 316.608 248.63C315.999 249.19 315.202 249.469 314.217 249.469H308.238V266.738C308.238 268.602 308.754 270.164 309.785 271.422C310.817 272.68 312.083 273.31 313.584 273.31H315.975C316.819 273.31 317.523 273.636 318.086 274.288C318.695 274.941 319 275.78 319 276.805C319 277.831 318.601 278.67 317.804 279.322C317.054 279.975 316.069 280.301 314.85 280.301H313.584Z" fill="#FC6363"/>
<path d="M20.4052 281C17.4134 281 14.5618 280.533 11.8505 279.6C9.13911 278.667 6.77837 277.36 4.76823 275.68C2.75809 274 1.28555 272.063 0.350605 269.87C-0.116868 268.89 -0.116868 267.98 0.350605 267.14C0.864827 266.3 1.70628 265.763 2.87496 265.53C3.71642 265.343 4.53449 265.483 5.3292 265.95C6.17065 266.37 6.80174 267.023 7.22247 267.91C7.78344 269.077 8.69501 270.15 9.95719 271.13C11.2661 272.11 12.8322 272.903 14.6553 273.51C16.4784 274.117 18.3951 274.42 20.4052 274.42C22.6491 274.42 24.706 274.07 26.5759 273.37C28.4925 272.67 30.0352 271.667 31.2039 270.36C32.3726 269.007 32.9569 267.35 32.9569 265.39C32.9569 262.917 31.9752 260.7 30.0118 258.74C28.0952 256.78 24.9163 255.567 20.4753 255.1C14.6787 254.54 10.1208 252.837 6.80174 249.99C3.48268 247.143 1.82315 243.62 1.82315 239.42C1.82315 236.34 2.68797 233.727 4.41763 231.58C6.14728 229.433 8.48465 227.8 11.4297 226.68C14.4216 225.56 17.7406 225 21.3869 225C25.6409 225 29.1236 225.863 31.835 227.59C34.5463 229.317 36.7902 231.603 38.5666 234.45C39.221 235.477 39.4782 236.457 39.3379 237.39C39.2444 238.277 38.8003 238.977 38.0056 239.49C37.1174 240.05 36.1591 240.167 35.1307 239.84C34.1022 239.513 33.3309 238.907 32.8167 238.02C31.648 236.013 30.1287 234.45 28.2588 233.33C26.4356 232.21 24.0749 231.627 21.1766 231.58C17.7173 231.533 14.8189 232.187 12.4815 233.54C10.1442 234.847 8.9755 236.877 8.9755 239.63C8.9755 241.03 9.3261 242.383 10.0273 243.69C10.7753 244.95 12.1076 246.047 14.0242 246.98C15.9876 247.913 18.7924 248.567 22.4387 248.94C28.0017 249.5 32.3258 251.203 35.4111 254.05C38.5432 256.85 40.1092 260.56 40.1092 265.18C40.1092 267.84 39.5483 270.15 38.4263 272.11C37.3512 274.07 35.8786 275.727 34.0087 277.08C32.1856 278.387 30.0819 279.367 27.6978 280.02C25.3604 280.673 22.9296 281 20.4052 281Z" fill="#8476F6"/>
<path d="M71.4868 280.58C67.7002 280.58 64.3578 279.763 61.4595 278.13C58.5611 276.45 56.2705 274.163 54.5876 271.27C52.9514 268.33 52.1334 264.97 52.1334 261.19C52.1334 257.363 52.9514 254.003 54.5876 251.11C56.2705 248.17 58.5611 245.883 61.4595 244.25C64.3578 242.57 67.7002 241.73 71.4868 241.73C75.2266 241.73 78.5456 242.57 81.444 244.25C84.3423 245.883 86.6096 248.17 88.2457 251.11C89.9286 254.003 90.7701 257.363 90.7701 261.19C90.7701 264.97 89.952 268.33 88.3158 271.27C86.6797 274.163 84.4124 276.45 81.5141 278.13C78.6157 279.763 75.2733 280.58 71.4868 280.58ZM71.4868 274.28C73.9176 274.28 76.068 273.72 77.9379 272.6C79.8078 271.48 81.257 269.94 82.2854 267.98C83.3606 266.02 83.8982 263.757 83.8982 261.19C83.8982 258.623 83.3606 256.36 82.2854 254.4C81.257 252.393 79.8078 250.83 77.9379 249.71C76.068 248.59 73.9176 248.03 71.4868 248.03C69.0559 248.03 66.9055 248.59 65.0356 249.71C63.1657 250.83 61.6932 252.393 60.618 254.4C59.5428 256.36 59.0052 258.623 59.0052 261.19C59.0052 263.757 59.5428 266.02 60.618 267.98C61.6932 269.94 63.1657 271.48 65.0356 272.6C66.9055 273.72 69.0559 274.28 71.4868 274.28Z" fill="#8476F6"/>
<path d="M114.037 280.3C111.98 280.3 110.157 279.74 108.567 278.62C106.978 277.5 105.739 275.983 104.851 274.07C103.962 272.11 103.518 269.87 103.518 267.35V229.13C103.518 228.103 103.846 227.263 104.5 226.61C105.155 225.957 105.996 225.63 107.024 225.63C108.053 225.63 108.894 225.957 109.549 226.61C110.203 227.263 110.531 228.103 110.531 229.13V267.35C110.531 269.077 110.858 270.5 111.512 271.62C112.167 272.74 113.008 273.3 114.037 273.3H115.79C116.725 273.3 117.472 273.627 118.033 274.28C118.641 274.933 118.945 275.773 118.945 276.8C118.945 277.827 118.501 278.667 117.613 279.32C116.725 279.973 115.579 280.3 114.177 280.3H114.037Z" fill="#8476F6"/>
<path d="M144.717 280.58C141.07 280.58 137.775 279.74 134.83 278.06C131.931 276.333 129.617 274 127.888 271.06C126.205 268.12 125.363 264.807 125.363 261.12C125.363 257.433 126.135 254.143 127.677 251.25C129.267 248.31 131.417 246 134.128 244.32C136.84 242.593 139.902 241.73 143.314 241.73C146.072 241.73 148.62 242.313 150.957 243.48C153.295 244.6 155.258 246.14 156.848 248.1V229.2C156.848 228.127 157.175 227.263 157.829 226.61C158.531 225.957 159.395 225.63 160.424 225.63C161.499 225.63 162.364 225.957 163.018 226.61C163.673 227.263 164 228.127 164 229.2V261.12C164 264.807 163.135 268.12 161.406 271.06C159.723 274 157.432 276.333 154.534 278.06C151.635 279.74 148.363 280.58 144.717 280.58ZM144.717 274.28C147.101 274.28 149.228 273.72 151.098 272.6C152.968 271.433 154.44 269.847 155.515 267.84C156.591 265.833 157.128 263.593 157.128 261.12C157.128 258.6 156.591 256.36 155.515 254.4C154.44 252.44 152.968 250.9 151.098 249.78C149.228 248.613 147.101 248.03 144.717 248.03C142.379 248.03 140.252 248.613 138.336 249.78C136.466 250.9 134.97 252.44 133.848 254.4C132.773 256.36 132.235 258.6 132.235 261.12C132.235 263.593 132.773 265.833 133.848 267.84C134.97 269.847 136.466 271.433 138.336 272.6C140.252 273.72 142.379 274.28 144.717 274.28Z" fill="#8476F6"/>
</svg>
