<svg width="319" height="213" viewBox="0 0 319 213" fill="none" xmlns="http://www.w3.org/2000/svg">
<path d="M141.412 62.3302C133.731 45.5566 151.03 28.2655 167.812 35.9421L263.217 79.5827C275.843 85.3585 278.832 101.95 269.013 111.764L217.273 163.48C207.455 173.294 190.855 170.307 185.076 157.687L141.412 62.3302Z" fill="#8476F6" fill-opacity="0.47"/>
<path d="M276.67 87.8905C299.584 110.793 299.585 147.925 276.672 170.828C253.759 193.73 216.608 193.729 193.694 170.827C170.779 147.924 170.778 110.792 193.691 87.8898C216.605 64.9875 253.755 64.9879 276.67 87.8905Z" fill="#8476F6"/>
<path d="M150.039 35.9233C166.821 28.247 184.121 45.5385 176.441 62.312L132.782 157.668C127.004 170.288 110.404 173.274 100.585 163.46L48.8422 111.744C39.0231 101.93 42.0108 85.3378 54.637 79.5623L150.039 35.9233Z" fill="#FC6363" fill-opacity="0.47"/>
<path d="M124.471 171.114C101.558 194.016 64.407 194.016 41.4926 171.113C18.5782 148.211 18.5772 111.078 41.4903 88.1762C64.4034 65.2739 101.554 65.2743 124.468 88.1769C147.383 111.08 147.384 148.212 124.471 171.114Z" fill="#FC6363"/>
</svg>
